<mxfile host="app.diagrams.net" modified="2021-07-31T16:09:10.075Z" agent="5.0 (Macintosh; Intel Mac OS X 10_15_7) AppleWebKit/537.36 (KHTML, like Gecko) Chrome/91.0.4472.114 Safari/537.36" etag="rB2VaNhks5wOl9MmCqFe" version="14.7.4" type="github">
  <diagram id="tEkcYNijV5x2h9KP3bgS" name="Page-1">
    <mxGraphModel dx="946" dy="589" grid="1" gridSize="10" guides="1" tooltips="1" connect="1" arrows="1" fold="1" page="1" pageScale="1" pageWidth="827" pageHeight="1169" math="0" shadow="0">
      <root>
        <mxCell id="0" />
        <mxCell id="1" parent="0" />
        <mxCell id="bJmAiWh4WF1ceM_bjU20-40" style="edgeStyle=orthogonalEdgeStyle;curved=1;rounded=0;orthogonalLoop=1;jettySize=auto;html=1;endArrow=none;endFill=0;strokeWidth=3;" edge="1" parent="1" source="bJmAiWh4WF1ceM_bjU20-1" target="bJmAiWh4WF1ceM_bjU20-39">
          <mxGeometry relative="1" as="geometry" />
        </mxCell>
        <mxCell id="bJmAiWh4WF1ceM_bjU20-1" value="" style="ellipse;whiteSpace=wrap;html=1;aspect=fixed;fillColor=#ffcccc;strokeWidth=3;strokeColor=#36393d;" vertex="1" parent="1">
          <mxGeometry x="317" y="350" width="30" height="30" as="geometry" />
        </mxCell>
        <mxCell id="bJmAiWh4WF1ceM_bjU20-35" style="edgeStyle=orthogonalEdgeStyle;curved=1;rounded=0;orthogonalLoop=1;jettySize=auto;html=1;endArrow=none;endFill=0;strokeWidth=3;" edge="1" parent="1" source="bJmAiWh4WF1ceM_bjU20-6" target="bJmAiWh4WF1ceM_bjU20-33">
          <mxGeometry relative="1" as="geometry" />
        </mxCell>
        <mxCell id="bJmAiWh4WF1ceM_bjU20-6" value="" style="ellipse;whiteSpace=wrap;html=1;aspect=fixed;strokeWidth=3;fillColor=#cdeb8b;strokeColor=#36393d;" vertex="1" parent="1">
          <mxGeometry x="435" y="200" width="30" height="30" as="geometry" />
        </mxCell>
        <mxCell id="bJmAiWh4WF1ceM_bjU20-11" style="edgeStyle=orthogonalEdgeStyle;rounded=0;orthogonalLoop=1;jettySize=auto;html=1;endArrow=none;endFill=0;strokeWidth=3;" edge="1" parent="1" source="bJmAiWh4WF1ceM_bjU20-7" target="bJmAiWh4WF1ceM_bjU20-9">
          <mxGeometry relative="1" as="geometry" />
        </mxCell>
        <mxCell id="bJmAiWh4WF1ceM_bjU20-7" value="" style="ellipse;whiteSpace=wrap;html=1;aspect=fixed;fillColor=#cce5ff;strokeWidth=3;strokeColor=#36393d;" vertex="1" parent="1">
          <mxGeometry x="160" y="250" width="30" height="30" as="geometry" />
        </mxCell>
        <mxCell id="bJmAiWh4WF1ceM_bjU20-13" style="edgeStyle=orthogonalEdgeStyle;rounded=0;orthogonalLoop=1;jettySize=auto;html=1;endArrow=none;endFill=0;strokeWidth=3;" edge="1" parent="1" source="bJmAiWh4WF1ceM_bjU20-9" target="bJmAiWh4WF1ceM_bjU20-12">
          <mxGeometry relative="1" as="geometry" />
        </mxCell>
        <mxCell id="bJmAiWh4WF1ceM_bjU20-19" style="edgeStyle=orthogonalEdgeStyle;curved=1;rounded=0;orthogonalLoop=1;jettySize=auto;html=1;exitX=0.5;exitY=1;exitDx=0;exitDy=0;entryX=0;entryY=0.5;entryDx=0;entryDy=0;endArrow=none;endFill=0;strokeWidth=3;" edge="1" parent="1" source="bJmAiWh4WF1ceM_bjU20-9" target="bJmAiWh4WF1ceM_bjU20-18">
          <mxGeometry relative="1" as="geometry" />
        </mxCell>
        <mxCell id="bJmAiWh4WF1ceM_bjU20-9" value="" style="ellipse;whiteSpace=wrap;html=1;aspect=fixed;fillColor=#cce5ff;strokeWidth=3;strokeColor=#36393d;" vertex="1" parent="1">
          <mxGeometry x="199" y="250" width="30" height="30" as="geometry" />
        </mxCell>
        <mxCell id="bJmAiWh4WF1ceM_bjU20-15" style="edgeStyle=orthogonalEdgeStyle;rounded=0;orthogonalLoop=1;jettySize=auto;html=1;endArrow=none;endFill=0;strokeWidth=3;" edge="1" parent="1" source="bJmAiWh4WF1ceM_bjU20-12" target="bJmAiWh4WF1ceM_bjU20-14">
          <mxGeometry relative="1" as="geometry" />
        </mxCell>
        <mxCell id="bJmAiWh4WF1ceM_bjU20-12" value="" style="ellipse;whiteSpace=wrap;html=1;aspect=fixed;fillColor=#cce5ff;strokeWidth=3;strokeColor=#36393d;" vertex="1" parent="1">
          <mxGeometry x="239" y="250" width="30" height="30" as="geometry" />
        </mxCell>
        <mxCell id="bJmAiWh4WF1ceM_bjU20-17" style="edgeStyle=orthogonalEdgeStyle;rounded=0;orthogonalLoop=1;jettySize=auto;html=1;endArrow=none;endFill=0;strokeWidth=3;" edge="1" parent="1" source="bJmAiWh4WF1ceM_bjU20-14" target="bJmAiWh4WF1ceM_bjU20-16">
          <mxGeometry relative="1" as="geometry" />
        </mxCell>
        <mxCell id="bJmAiWh4WF1ceM_bjU20-32" style="edgeStyle=orthogonalEdgeStyle;curved=1;rounded=0;orthogonalLoop=1;jettySize=auto;html=1;entryX=0;entryY=0.5;entryDx=0;entryDy=0;endArrow=none;endFill=0;strokeWidth=3;exitX=0.5;exitY=0;exitDx=0;exitDy=0;" edge="1" parent="1" source="bJmAiWh4WF1ceM_bjU20-14" target="bJmAiWh4WF1ceM_bjU20-6">
          <mxGeometry relative="1" as="geometry" />
        </mxCell>
        <mxCell id="bJmAiWh4WF1ceM_bjU20-14" value="" style="ellipse;whiteSpace=wrap;html=1;aspect=fixed;fillColor=#cce5ff;strokeWidth=3;strokeColor=#36393d;" vertex="1" parent="1">
          <mxGeometry x="357" y="250" width="30" height="30" as="geometry" />
        </mxCell>
        <mxCell id="bJmAiWh4WF1ceM_bjU20-24" style="edgeStyle=orthogonalEdgeStyle;curved=1;rounded=0;orthogonalLoop=1;jettySize=auto;html=1;endArrow=none;endFill=0;strokeWidth=3;" edge="1" parent="1" source="bJmAiWh4WF1ceM_bjU20-16" target="bJmAiWh4WF1ceM_bjU20-23">
          <mxGeometry relative="1" as="geometry" />
        </mxCell>
        <mxCell id="bJmAiWh4WF1ceM_bjU20-16" value="" style="ellipse;whiteSpace=wrap;html=1;aspect=fixed;fillColor=#cce5ff;strokeWidth=3;strokeColor=#36393d;" vertex="1" parent="1">
          <mxGeometry x="475" y="250" width="30" height="30" as="geometry" />
        </mxCell>
        <mxCell id="bJmAiWh4WF1ceM_bjU20-21" style="edgeStyle=orthogonalEdgeStyle;curved=1;rounded=0;orthogonalLoop=1;jettySize=auto;html=1;endArrow=none;endFill=0;strokeWidth=3;" edge="1" parent="1" source="bJmAiWh4WF1ceM_bjU20-18" target="bJmAiWh4WF1ceM_bjU20-20">
          <mxGeometry relative="1" as="geometry" />
        </mxCell>
        <mxCell id="bJmAiWh4WF1ceM_bjU20-38" style="edgeStyle=orthogonalEdgeStyle;curved=1;rounded=0;orthogonalLoop=1;jettySize=auto;html=1;exitX=0.5;exitY=1;exitDx=0;exitDy=0;entryX=0;entryY=0.5;entryDx=0;entryDy=0;endArrow=none;endFill=0;strokeWidth=3;" edge="1" parent="1" source="bJmAiWh4WF1ceM_bjU20-18" target="bJmAiWh4WF1ceM_bjU20-1">
          <mxGeometry relative="1" as="geometry" />
        </mxCell>
        <mxCell id="bJmAiWh4WF1ceM_bjU20-18" value="" style="ellipse;whiteSpace=wrap;html=1;aspect=fixed;fillColor=#eeeeee;strokeWidth=3;strokeColor=#36393d;" vertex="1" parent="1">
          <mxGeometry x="278" y="300" width="30" height="30" as="geometry" />
        </mxCell>
        <mxCell id="bJmAiWh4WF1ceM_bjU20-20" value="" style="ellipse;whiteSpace=wrap;html=1;aspect=fixed;fillColor=#eeeeee;strokeWidth=3;strokeColor=#36393d;" vertex="1" parent="1">
          <mxGeometry x="396" y="300" width="30" height="30" as="geometry" />
        </mxCell>
        <mxCell id="bJmAiWh4WF1ceM_bjU20-28" style="edgeStyle=orthogonalEdgeStyle;curved=1;rounded=0;orthogonalLoop=1;jettySize=auto;html=1;endArrow=none;endFill=0;strokeWidth=3;" edge="1" parent="1" source="bJmAiWh4WF1ceM_bjU20-23" target="bJmAiWh4WF1ceM_bjU20-27">
          <mxGeometry relative="1" as="geometry" />
        </mxCell>
        <mxCell id="bJmAiWh4WF1ceM_bjU20-23" value="" style="ellipse;whiteSpace=wrap;html=1;aspect=fixed;fillColor=#cce5ff;strokeWidth=3;strokeColor=#36393d;" vertex="1" parent="1">
          <mxGeometry x="554" y="250" width="30" height="30" as="geometry" />
        </mxCell>
        <mxCell id="bJmAiWh4WF1ceM_bjU20-26" value="" style="ellipse;whiteSpace=wrap;html=1;aspect=fixed;fillColor=#cce5ff;strokeWidth=3;strokeColor=#36393d;" vertex="1" parent="1">
          <mxGeometry x="711" y="250" width="30" height="30" as="geometry" />
        </mxCell>
        <mxCell id="bJmAiWh4WF1ceM_bjU20-29" style="edgeStyle=orthogonalEdgeStyle;curved=1;rounded=0;orthogonalLoop=1;jettySize=auto;html=1;endArrow=none;endFill=0;strokeWidth=3;" edge="1" parent="1" source="bJmAiWh4WF1ceM_bjU20-27" target="bJmAiWh4WF1ceM_bjU20-26">
          <mxGeometry relative="1" as="geometry" />
        </mxCell>
        <mxCell id="bJmAiWh4WF1ceM_bjU20-27" value="" style="ellipse;whiteSpace=wrap;html=1;aspect=fixed;fillColor=#cce5ff;strokeWidth=3;strokeColor=#36393d;" vertex="1" parent="1">
          <mxGeometry x="632" y="250" width="30" height="30" as="geometry" />
        </mxCell>
        <mxCell id="bJmAiWh4WF1ceM_bjU20-36" style="edgeStyle=orthogonalEdgeStyle;curved=1;rounded=0;orthogonalLoop=1;jettySize=auto;html=1;endArrow=none;endFill=0;strokeWidth=3;" edge="1" parent="1" source="bJmAiWh4WF1ceM_bjU20-33" target="bJmAiWh4WF1ceM_bjU20-34">
          <mxGeometry relative="1" as="geometry" />
        </mxCell>
        <mxCell id="bJmAiWh4WF1ceM_bjU20-33" value="" style="ellipse;whiteSpace=wrap;html=1;aspect=fixed;strokeWidth=3;fillColor=#cdeb8b;strokeColor=#36393d;" vertex="1" parent="1">
          <mxGeometry x="593" y="200" width="30" height="30" as="geometry" />
        </mxCell>
        <mxCell id="bJmAiWh4WF1ceM_bjU20-34" value="" style="ellipse;whiteSpace=wrap;html=1;aspect=fixed;strokeWidth=3;fillColor=#cdeb8b;strokeColor=#36393d;" vertex="1" parent="1">
          <mxGeometry x="672" y="200" width="30" height="30" as="geometry" />
        </mxCell>
        <mxCell id="bJmAiWh4WF1ceM_bjU20-39" value="" style="ellipse;whiteSpace=wrap;html=1;aspect=fixed;fillColor=#ffcccc;strokeWidth=3;strokeColor=#36393d;" vertex="1" parent="1">
          <mxGeometry x="514" y="350" width="30" height="30" as="geometry" />
        </mxCell>
      </root>
    </mxGraphModel>
  </diagram>
</mxfile>
